# xmcd CD database file
#
# Track frame offsets:
#	150
#	13178
#	40067
#	54335
#	81956
#	102574
#	114696
#	125519
#	140286
#	155487
#	185083
#	207926
#	223766
#	235769
#	252267
#	268220
#	282975
#	302704
#
# Disc length: 4611 seconds
#
# Revision: 3
# Processed by: cddbd v1.5.2PL0 Copyright (c) Steve Scherf et al.
# Submitted via: CDex 1.94
#
DISCID=0f120112
DTITLE=Various Artist - Stax - Chartbusters # 3
DYEAR=1900
DGENRE=Blues
TTITLE0=Jimmy Hughes - I Like Everything About You
TTITLE1=Shirley Brown - It Ain't No Fun
TTITLE2=William Bell - My Whole World Is Falling Down
TTITLE3=Albert King - Heartbreak Hotel
TTITLE4=Isaak Hayes - Walk On By
TTITLE5=Mel and Tim - Free For All
TTITLE6=The Mad Lads - It's Loving Time
TTITLE7=The Soul Children - Love Is A Hurtin' Thing
TTITLE8=The Staple Singers - If You're Ready (Come Go With Me)
TTITLE9=Little Milton - Little Bluebird
TTITLE10=The Bar Kays - I Was Made To Love Her
TTITLE11=The Dramatics - In The Rain
TTITLE12=Carla Thomas - Strung Out Over You
TTITLE13=Booker T And The MG's - Eleanor Rigby
TTITLE14=Johnny Taylor - It's Cheaper To Keep Her
TTITLE15=Isaac Hayes - Ellie's Love Theme
TTITLE16=The Staple Singers - This Is A Perfect World
TTITLE17=Johnny Taylor - Hello Sundown
EXTD=
EXTT0=
EXTT1=
EXTT2=
EXTT3=
EXTT4=
EXTT5=
EXTT6=
EXTT7=
EXTT8=
EXTT9=
EXTT10=
EXTT11=
EXTT12=
EXTT13=
EXTT14=
EXTT15=
EXTT16=
EXTT17=
PLAYORDER=
